<?xml version="1.0" ?><svg style="enable-background:new 0 0 48 48;" version="1.1" viewBox="0 0 48 48" xml:space="preserve" xmlns="http://www.w3.org/2000/svg" xmlns:xlink="http://www.w3.org/1999/xlink"><g id="Icons"><g><path d="M38.59184,34.88601H9.40817c-1.21976,0-2.20862-0.98886-2.20862-2.20862V15.32261    c0-1.21987,0.98886-2.20862,2.20862-2.20862h29.18367c1.21976,0,2.20862,0.98875,2.20862,2.20862v17.35478    C40.80045,33.89716,39.8116,34.88601,38.59184,34.88601z" style="fill:#F9F9F9;"/><path d="    M38.59184,34.88601H9.40817c-1.21976,0-2.20862-0.98886-2.20862-2.20862V15.32261c0-1.21987,0.98886-2.20862,2.20862-2.20862    h29.18367c1.21976,0,2.20862,0.98875,2.20862,2.20862v17.35478C40.80045,33.89716,39.8116,34.88601,38.59184,34.88601z" style="fill:none;stroke:#303030;stroke-width:0.8;stroke-linecap:round;stroke-linejoin:round;stroke-miterlimit:10;"/><g><path d="M23.11605,20.66228l-1.98804,4.53965l-2.08197-4.53965h-2.67685v6.27711l-2.75501-6.27711     h-2.36376l-2.88036,6.66859l1.75322,0.00685l0.54802-1.43143h3.4124l0.6263,1.43143h3.28727v-5.21965l2.31679,5.21281     c0,0,1.40882,0.01554,1.51829,0c0.10958-0.01576,2.28548-5.16584,2.28548-5.16584v5.16584h1.58113v-6.66859H23.11605z      M11.31174,24.49356l1.09442-2.60684l1.09442,2.60684H11.31174z" style="fill:#128CF9;"/><path d="M39.62994,20.66228h-1.91412l-2.03631,2.20655l-1.96836-2.20655H27.1815v6.67543h6.44811     l2.02272-2.16111l1.98195,2.16111h1.94118L36.68402,24L39.62994,20.66228z M32.73381,26.01826h-3.95043v-1.3575     c0,0,3.46154,0,3.54308,0c0.08142,0,0-1.38468,0-1.38468h-3.54308v-1.24879h4.03175l1.83258,1.99554L32.73381,26.01826z" style="fill:#128CF9;"/></g></g></g></svg>