<svg width="660" height="90" xmlns="http://www.w3.org/2000/svg">
 <style type="text/css">.st0{fill:#00BD8A;}
	.st1{fill:#1C1C1C;}</style>

 <g>
  <title>Layer 1</title>
  <path id="svg_1" d="m187.9,22l-12.2,0l0,45.1l13.1,0l0,-23.5c0,-2.3 0.5,-4.2 1.5,-5.8c1,-1.5 2.2,-2.7 3.8,-3.5c1.6,-0.8 3.3,-1.2 5.2,-1.2c1.4,0 2.6,0.2 3.9,0.6c1.2,0.4 2.3,0.9 3.4,1.6l5.4,-10.4c-1.5,-1.5 -3.2,-2.5 -5.1,-3.1c-1.8,-0.7 -3.8,-1 -5.9,-1c-2.5,0 -4.8,0.4 -6.8,1.4c-2,1 -3.8,2.5 -5.2,4.6l-1.1,-4.8m-43.4,-1.2c-4.9,0 -9.1,1 -12.7,3c-3.6,2 -6.3,4.7 -8.2,8.1c-1.9,3.5 -2.9,7.6 -2.9,12.2c0,4.9 1,9.1 2.9,12.7c1.9,3.6 4.7,6.4 8.5,8.4c3.7,2 8.3,3 13.8,3c2.3,0 4.6,-0.2 7,-0.6c2.3,-0.5 4.6,-1.2 6.7,-2.1c2.1,-1 4,-2.3 5.6,-3.9l-7.4,-8.3c-1.7,1.4 -3.6,2.3 -5.7,2.9c-2.2,0.5 -4.2,0.7 -6,0.7c-3.7,0 -6.5,-0.8 -8.6,-2.2c-2.1,-1.5 -3.2,-3.4 -3.6,-5.7l33.1,0c0.9,-6.2 0.5,-11.3 -1.2,-15.5c-1.7,-4.2 -4.3,-7.3 -8,-9.5c-3.7,-2.2 -8.2,-3.2 -13.3,-3.2m-6.8,13.2c1.8,-1.3 4.1,-1.9 6.8,-2c1.8,0 3.6,0.2 5.2,0.8c1.6,0.6 2.9,1.4 3.9,2.4c1,1.1 1.6,2.5 1.6,4.1l-21.2,0c0.6,-2.3 1.8,-4.1 3.7,-5.3m-121.5,-30.8l-14.1,0l0,64l14.1,0l0,-64m65.6,19.1l0,11l8,0l0,16.9c0,4.7 0.8,8.3 2.2,11c1.5,2.7 3.5,4.6 6.1,5.6c2.5,1 5.5,1.5 8.8,1.3c1.7,-0.1 3.3,-0.3 4.8,-0.6c1.5,-0.3 3,-0.8 4.6,-1.4l-2.9,-10.9c-0.8,0.4 -1.7,0.6 -2.7,0.8c-1.1,0.2 -2,0.2 -2.8,0.2c-1.3,0.1 -2.5,-0.3 -3.5,-1.2c-1,-0.8 -1.6,-2.4 -1.6,-4.8l0,-16.9l11.5,0l0,-11l-11.4,0l0,-12.7l-13.1,1.5l0,11.2l-8,0m-38.6,16c0.8,-1.7 2,-3 3.5,-4.1c1.5,-1 3.3,-1.5 5.4,-1.5c3.1,0 5.5,0.9 7,2.7c1.5,1.7 2.3,4.3 2.3,7.8l0,23.9l13.1,0l0,-24c0,-5.8 -0.9,-10.3 -2.6,-13.5c-1.7,-3.3 -3.9,-5.6 -6.8,-6.9c-2.9,-1.3 -6,-1.9 -9.4,-1.9c-2.7,-0.1 -5.3,0.4 -7.8,1.4c-2.5,1 -4.7,2.8 -6.8,5.4l-0.4,-5.7l-11.9,0l0,45.1l13,0l0,-23.3c0.1,-1.9 0.5,-3.7 1.4,-5.4z" class="st0"/>
  <path id="svg_2" d="m560.4,22.7c-2.8,-1.3 -6,-1.9 -9.4,-1.9c-2.7,-0.1 -5.3,0.4 -7.8,1.4c-2.4,1 -4.7,2.8 -6.7,5.4l-0.5,-5.6l-11.9,0l0,45.1l13,0l0,-23.3c0,-2 0.4,-3.8 1.3,-5.5c0.8,-1.7 2,-3 3.6,-4.1c1.5,-1 3.3,-1.5 5.3,-1.5c3.1,0 5.5,0.9 7,2.7c1.5,1.7 2.2,4.3 2.2,7.8l0,23.9l13.2,0l0,-24c-0.1,-5.8 -0.9,-10.3 -2.6,-13.5c-1.6,-3.3 -3.9,-5.6 -6.7,-6.9m-80.4,1.1c-3.6,2 -6.3,4.7 -8.2,8.1c-1.9,3.5 -2.9,7.6 -2.9,12.2c0,4.9 1,9.1 2.9,12.7c1.9,3.6 4.8,6.4 8.5,8.4c3.7,2 8.3,3 13.7,3c2.3,0 4.6,-0.2 7,-0.6c2.3,-0.5 4.6,-1.2 6.7,-2.1c2.1,-1 4,-2.3 5.6,-3.9l-7.3,-8.3c-1.7,1.4 -3.6,2.3 -5.7,2.9c-2.1,0.5 -4.1,0.7 -6,0.7c-3.7,0 -6.6,-0.8 -8.6,-2.2c-2.1,-1.5 -3.3,-3.4 -3.6,-5.7l33.1,0c0.9,-6.2 0.5,-11.3 -1.2,-15.5c-1.7,-4.2 -4.3,-7.3 -8,-9.5c-3.7,-2.1 -8.1,-3.1 -13.3,-3.1c-4.9,-0.1 -9.1,0.9 -12.7,2.9m2.2,15.4c0.6,-2.2 1.9,-4 3.8,-5.2c1.8,-1.3 4.1,-1.9 6.8,-2c1.8,0 3.6,0.2 5.2,0.8c1.6,0.6 2.9,1.4 4,2.4c1,1.1 1.5,2.5 1.7,4.1l-21.5,0m-75.6,-16c-1.4,0.9 -2.5,2.2 -3.5,3.8l-1,-5l-11.5,0l0,45.1l13.2,0l0,-24.2c0,-1.8 0.3,-3.4 0.9,-4.9c0.6,-1.5 1.6,-2.7 2.8,-3.6c1.2,-0.9 2.6,-1.4 4.3,-1.4c2.7,0 4.7,0.9 5.9,2.6c1.3,1.8 1.9,4.2 1.9,7.2l0,24.2l12.9,0l0,-24.2c0,-1.7 0.3,-3.3 1,-4.8c0.7,-1.4 1.6,-2.6 2.8,-3.5c1.2,-0.9 2.7,-1.3 4.5,-1.3c2.6,0 4.4,0.9 5.4,2.6c1,1.7 1.5,3.9 1.5,6.8l0,24.4l13.3,0l0,-24.6c-0.1,-5.6 -1,-9.9 -2.7,-13.1c-1.6,-3.1 -3.8,-5.4 -6.5,-6.6c-2.7,-1.3 -5.6,-1.9 -8.8,-1.9c-3.3,0 -6.1,0.6 -8.5,1.9c-2.3,1.4 -4.5,3.6 -6.5,6.6c-1.6,-3.2 -3.5,-5.5 -5.9,-6.7c-2.4,-1.2 -4.8,-1.8 -7.3,-1.8c-1.3,0 -2.7,0.2 -4.1,0.5c-1.4,0.4 -2.8,1 -4.1,1.9m-58.9,-1.3l-14.7,0l18.9,43.8l-9.4,21.7l14.4,0l27.5,-65.5l-14.4,0l-11,28.4l-11.3,-28.4m-58.9,1.7c-3.6,1.8 -6.4,4.5 -8.5,8.1c-2.1,3.5 -3.1,7.8 -3.1,12.9c0,5 1,9.3 3,12.8c1.9,3.5 4.7,6.2 8.2,8c3.5,1.8 7.5,2.8 12,2.8c1.5,0 3.1,-0.3 4.8,-0.7c1.8,-0.5 3.5,-1.2 5.1,-2.2c1.6,-1 2.9,-2.2 4,-3.8l0.8,5.6l11.8,0c0,-7.5 0,-15 0,-22.5c0,-7.6 0,-15.1 0,-22.6l-12.4,0l-0.4,5.2c-1.2,-2 -3,-3.6 -5.4,-4.6c-2.4,-1.1 -5,-1.6 -7.9,-1.6c-4.5,-0.2 -8.5,0.7 -12,2.6m7.4,10.3c1.8,-1 3.8,-1.5 6,-1.5l0,0.1c2.6,0 4.8,0.6 6.5,1.8c1.8,1.1 3.1,2.6 4,4.5c0.9,1.9 1.4,3.9 1.4,6.1c0,1.9 -0.5,3.7 -1.5,5.5c-1,1.7 -2.3,3.1 -4.1,4.2c-1.8,1.1 -3.9,1.7 -6.4,1.7c-2.2,0 -4.2,-0.5 -6.1,-1.4c-1.8,-0.9 -3.2,-2.3 -4.2,-4c-1.1,-1.8 -1.6,-4 -1.6,-6.4c0.1,-2.5 0.6,-4.7 1.6,-6.5c1.2,-1.8 2.6,-3.2 4.4,-4.1m-25.8,3.7c1.8,-3.5 2.7,-7.4 2.8,-11.6c0,-4.2 -0.9,-8 -2.8,-11.5c-1.8,-3.4 -4.5,-6.2 -8,-8.3c-3.6,-2.1 -8.1,-3.1 -13.5,-3.2c-5.1,0 -10.1,0 -15.1,0c-5,0 -10,0 -15,0l0,64l14.2,0l0,-18l15.9,0c5.4,-0.1 9.9,-1.2 13.5,-3.2c3.5,-2 6.2,-4.8 8,-8.2m-11.5,-11.3c0,1.7 -0.4,3.3 -1.1,4.7c-0.8,1.5 -1.9,2.7 -3.5,3.6c-1.5,0.9 -3.4,1.3 -5.6,1.4l-15.9,0l0,-19.4l15.9,0c2.2,0 4,0.5 5.5,1.4c1.5,0.9 2.7,2 3.5,3.5c0.8,1.4 1.2,3 1.2,4.8m368,-4.2c-2.9,1 -5.3,2.6 -7.2,4.7c-1.8,2.2 -2.8,5 -2.9,8.4c0,2.6 0.6,4.8 1.8,6.6c1.1,1.8 2.6,3.3 4.5,4.4c1.9,1.1 3.9,1.9 6.1,2.5c2.2,0.5 4.4,0.8 6.5,0.9c3,0.1 5,0.6 6.1,1.4c1,0.7 1.5,1.6 1.5,2.6c0,1.2 -0.6,2.2 -1.9,2.9c-1.2,0.7 -2.8,1 -4.8,1c-2.4,0 -4.9,-0.4 -7.5,-1.2c-2.7,-0.8 -5.4,-2.3 -8.1,-4.5l-5.7,9.3c2.6,2.1 5,3.8 7.5,4.9c2.4,1.1 4.7,1.8 7,2.2c2.3,0.4 4.5,0.6 6.7,0.6c4.8,-0.1 8.6,-0.8 11.6,-2.3c2.9,-1.5 5,-3.4 6.3,-5.7c1.3,-2.3 1.9,-4.7 1.9,-7.2c-0.1,-3.1 -0.7,-5.6 -1.9,-7.5c-1.2,-1.9 -2.7,-3.3 -4.7,-4.3c-1.9,-1 -4,-1.7 -6.2,-2c-2.3,-0.4 -4.6,-0.6 -6.8,-0.7c-2.2,0 -3.8,-0.4 -5,-1c-1.1,-0.6 -1.7,-1.6 -1.7,-2.8c0,-1.2 0.6,-2.1 1.7,-2.8c1,-0.7 2.6,-1 4.8,-1c2.1,0 4,0.2 5.7,0.8c1.7,0.5 3.4,1.4 5,2.5l6.4,-8.2c-2.3,-2 -4.9,-3.5 -7.8,-4.5c-2.8,-0.9 -5.9,-1.4 -9.4,-1.4c-3.4,-0.1 -6.6,0.4 -9.5,1.4m-49.6,0.1l0,11l8,0l0,16.9c0.1,4.7 0.8,8.3 2.2,11c1.5,2.7 3.5,4.6 6.1,5.6c2.5,1 5.5,1.5 8.8,1.3c1.7,-0.1 3.3,-0.3 4.8,-0.6c1.5,-0.3 3,-0.8 4.6,-1.4l-3,-10.9c-0.8,0.4 -1.7,0.6 -2.7,0.8c-1,0.2 -2,0.2 -2.8,0.2c-1.3,0.1 -2.5,-0.3 -3.5,-1.2c-1,-0.8 -1.6,-2.4 -1.6,-4.8l0,-16.9l11.5,0l0,-11l-11.4,0l0,-12.7l-13.1,1.5l0,11.2l-7.9,0z" class="st1"/>
 </g>
</svg>