<?xml version="1.0" ?><svg id="Layer_1" style="enable-background:new 0 0 156 128;" version="1.1" viewBox="0 0 156 128" xml:space="preserve" xmlns="http://www.w3.org/2000/svg" xmlns:xlink="http://www.w3.org/1999/xlink"><style type="text/css">
	.st0{clip-path:url(#SVGID_2_);fill:#FFFFFF;stroke:#CBCBCB;stroke-width:2;stroke-miterlimit:10;}
	.st1{clip-path:url(#SVGID_4_);fill:#00A551;}
	.st2{clip-path:url(#SVGID_6_);fill:#0071BB;}
	.st3{clip-path:url(#SVGID_8_);fill:#FFFFFF;}
	.st4{clip-path:url(#SVGID_10_);fill:#EC1C24;}
	.st5{clip-path:url(#SVGID_12_);fill:#FFFFFF;}
	.st6{clip-path:url(#SVGID_14_);fill:#FFFFFF;}
</style><g><g><defs><path d="M14,30c0-3.3,2.7-6,6-6h116c3.3,0,6,2.7,6,6v68c0,3.3-2.7,6-6,6H20c-3.3,0-6-2.7-6-6V30z" id="SVGID_1_"/></defs><use style="overflow:visible;fill:#FFFFFF;" xlink:href="#SVGID_1_"/><clipPath id="SVGID_2_"><use style="overflow:visible;" xlink:href="#SVGID_1_"/></clipPath><path class="st0" d="M14,30c0-3.3,2.7-6,6-6h116c3.3,0,6,2.7,6,6v68c0,3.3-2.7,6-6,6H20c-3.3,0-6-2.7-6-6V30z"/></g></g><g><g><defs><path d="M106.3,67.5c0.1,5.9,0.4,12,0.1,18.1c-0.1,2.4-1.7,4.7-3.9,6c-1.7,1.1-3.7,1.2-5.9,1.3l-7.9-0.1V42.5     c0.4-3.3,2.8-6.3,6-7.1c3.9-0.5,7.5-0.3,11.5-0.4l0.1,2.5V66l-0.1,0.1v1.4H106.3z" id="SVGID_3_"/></defs><clipPath id="SVGID_4_"><use style="overflow:visible;" xlink:href="#SVGID_3_"/></clipPath><rect class="st1" height="67.9" width="27.7" x="83.8" y="30.1"/></g></g><g><g><defs><path d="M49.5,65.6V41.9c0.5-2.7,2.7-5.2,5.2-6.1c3.9-1.2,8.3-0.5,12.3-0.5c0.1,3.9,0,8.7,0.1,12l0.1,30.9     c-0.5,4.8,1.3,11.2-4.7,13.9c-3.7,1.9-8.8,0.7-13.1,1.1l-0.1-0.7v-26v-0.9H49.5z" id="SVGID_5_"/></defs><clipPath id="SVGID_6_"><use style="overflow:visible;" xlink:href="#SVGID_5_"/></clipPath><rect class="st2" height="68.1" width="27.9" x="44.3" y="30"/></g></g><g><g><defs><path d="M49.5,66.5c1.6,2.1,3.7,3.6,6.4,3.7c3.2,0.3,7.5,0.5,9.7-2.5c1.5-1.6,0.5-3.7,0.9-5.9l-0.1-3.7     c-1.9-0.4-3.6,0-5.7-0.1c-1.1,4,1.7,8.5-2.8,10.7c-1.1,0.3-2.7,0.1-3.7-0.5c-1.7-0.4-0.8-3.2-3.2-2.5l-1.3-0.1v1.1h-0.2V66.5z" id="SVGID_7_"/></defs><clipPath id="SVGID_8_"><use style="overflow:visible;" xlink:href="#SVGID_7_"/></clipPath><rect class="st3" height="22.5" width="27.1" x="44.5" y="53"/></g></g><g><g><defs><path d="M86.7,38.4l0.1,48.1c-0.7,2.3-2.5,4.8-4.9,5.6c-3.7,1.3-8.4,0.7-12.5,0.7l-0.1-50.7     c0.1-2.4,1.7-4.4,3.9-5.7c1.5-0.9,3.2-1.3,5.2-1.3h8.4L86.7,38.4L86.7,38.4z" id="SVGID_9_"/></defs><clipPath id="SVGID_10_"><use style="overflow:visible;" xlink:href="#SVGID_9_"/></clipPath><rect class="st4" height="67.9" width="27.6" x="64.2" y="30.1"/></g></g><g><g><defs><path d="M85.9,58.3c0.1,0.5,0,1.1,0.1,1.7c-2.9-0.8-6.7-1.7-9.3,0.5c-0.9,1.2-1.6,2.4-1.5,4     c0.3,1.7,1.3,3.5,3.1,4.1c2.5,0.8,5.2,0.1,7.6-0.5c0.1,0.5,0.1,1.2,0,1.6H74.5c-2-0.4-3.6-1.5-4.4-3.5c-0.8-1.9-0.4-4.4,0.9-6     c1.2-1.3,2.8-2.1,4.8-2.1L85.9,58.3z" id="SVGID_11_"/></defs><clipPath id="SVGID_12_"><use style="overflow:visible;" xlink:href="#SVGID_11_"/></clipPath><rect class="st5" height="21.6" width="26.3" x="64.7" y="53.1"/></g></g><g><g><defs><path d="M99.7,64.8c-1.9-0.3-3.7-0.1-5.5-0.1c-0.1,1.5,0,2.7,0.1,4c2,0,4.1,0.3,5.9-0.5c0.5-0.5,0.8-1.3,0.5-2     C100.9,65.6,100.4,65.1,99.7,64.8z M94.4,59.3c-0.3,1.1-0.3,2.5-0.1,3.7c2.1-0.1,4.8,0.7,6.1-0.9c0.5-0.5,0.1-1.6-0.1-2.1     C98.8,58.8,96.4,59.6,94.4,59.3z M106.3,67.5c-0.3,1.2-1.3,2.3-2.5,2.5H90l-0.5-0.1c0-4-0.1-7.7,0.1-11.6h8.8     c2.8,0.3,5.9-0.9,7.1,1.7c0.4,0.9,0.3,2.1-0.4,2.8c-0.4,0.7-1.3,0.8-1.5,1.3c1.1,0.3,2.3,1.2,2.7,2.3     C106.3,66.4,106.3,67.5,106.3,67.5z" id="SVGID_13_"/></defs><clipPath id="SVGID_14_"><use style="overflow:visible;" xlink:href="#SVGID_13_"/></clipPath><rect class="st6" height="21.8" width="26.8" x="84.4" y="53.2"/></g></g></svg>