<svg xmlns="http://www.w3.org/2000/svg" viewBox="0 0 192.76 192.76"><defs><style>.cls-1{fill:#fff;}.cls-1,.cls-2,.cls-3{fill-rule:evenodd;}.cls-2{fill:#009ddd;}.cls-3{fill:#ed1c2e;}</style></defs><g id="Layer_2" data-name="Layer 2"><g id="Layer_1-2" data-name="Layer 1"><polygon class="cls-1" points="0 0 192.76 0 192.76 192.76 0 192.76 0 0 0 0"/><path class="cls-2" d="M96.38,138.17a56.66,56.66,0,0,0,0-83.58A55.52,55.52,0,0,0,58.81,40a56.39,56.39,0,0,0,0,112.77,55.52,55.52,0,0,0,37.57-14.59Z"/><path class="cls-3" d="M134,40A55.92,55.92,0,0,0,90.73,60.56H102a56.15,56.15,0,0,1,4.26,6H86.46a56.17,56.17,0,0,0-3.23,6h26.29a55.33,55.33,0,0,1,2.37,6h-31a55.77,55.77,0,0,0-1.62,6h34.28a57,57,0,0,1-1.63,29.85h-31a56.16,56.16,0,0,0,2.37,6h26.29a57.16,57.16,0,0,1-3.23,6H86.46a54.84,54.84,0,0,0,4.27,6H102a57,57,0,0,1-5.65,6A55.52,55.52,0,0,0,134,152.76a56.18,56.18,0,0,0,56-56.38c0-31.14-25.06-56.39-56-56.39Z"/><path class="cls-3" d="M182.47,127.81a1.81,1.81,0,1,1,1.81,1.82,1.81,1.81,0,0,1-1.81-1.82Zm1.81,1.38a1.38,1.38,0,0,0,0-2.76,1.38,1.38,0,0,0,0,2.76Zm-.25-.58h-.37V127h.67a.72.72,0,0,1,.41.08.48.48,0,0,1,.2.4.43.43,0,0,1-.27.41l.29.71h-.41l-.25-.63H184v-.28h.21a.41.41,0,0,0,.22,0,.21.21,0,0,0,0-.35.66.66,0,0,0-.24,0H184v1.32Z"/><path class="cls-1" d="M170.63,108.6a1.81,1.81,0,1,1,1.81,1.82,1.81,1.81,0,0,1-1.81-1.82Zm1.81,1.38a1.38,1.38,0,1,0-1.37-1.38,1.37,1.37,0,0,0,1.37,1.38Zm-.24-.58h-.38v-1.6h.68a.7.7,0,0,1,.4.08.48.48,0,0,1,.2.4.43.43,0,0,1-.27.41l.29.71h-.41l-.24-.63h-.27v-.28h.2a.45.45,0,0,0,.23,0,.21.21,0,0,0,.09-.18.22.22,0,0,0-.09-.17.66.66,0,0,0-.24,0h-.19v1.32Z"/><polygon class="cls-1" points="51.81 110.42 44.85 110.42 48.99 88.44 39.45 110.42 33.1 110.42 31.94 88.57 27.79 110.42 21.47 110.42 26.87 81.83 37.74 81.83 38.31 99.53 45.98 81.83 57.3 81.83 51.81 110.42 51.81 110.42"/><path class="cls-1" d="M129.66,110.13a17.79,17.79,0,0,1-5,.76c-3.57,0-5.51-1.8-5.51-5.11a12,12,0,0,1,.2-2.08l.43-2.28.32-1.84,3.23-17.75h6.93l-1,5.34h3.55l-1,5.65h-3.56l-1.84,9.7a5.81,5.81,0,0,0-.12,1c0,1.2.72,1.73,2.38,1.73a6.71,6.71,0,0,0,1.88-.22l-.93,5.14Z"/><path class="cls-1" d="M150,87.36a3.73,3.73,0,0,0-.79-.25l-.6-.13a3.8,3.8,0,0,0-.7-.06c-2.29,0-3.94,1-6.07,3.77l.62-3.52h-6.31l-4.25,23.25h7c2.5-14.22,3.57-16.71,6.91-16.71a7.63,7.63,0,0,1,.88.06l.81.17L150,87.36Z"/><path class="cls-1" d="M102.05,94.52c0,2.93,1.64,5,5.37,6.48,2.85,1.16,3.29,1.51,3.29,2.56,0,1.45-1.26,2.1-4,2.1a22.32,22.32,0,0,1-6.32-.92l-1,5.37.32,0,1.29.24c.41.07,1,.14,1.84.2,1.67.13,3,.19,3.88.19,7.44,0,10.88-2.45,10.88-7.76,0-3.19-1.44-5.06-5-6.47-3-1.17-3.3-1.43-3.3-2.52,0-1.25,1.17-1.9,3.45-1.9a47.34,47.34,0,0,1,5.07.35l1-5.38a55.18,55.18,0,0,0-6.2-.45c-7.89,0-10.61,3.57-10.59,7.86Z"/><path class="cls-1" d="M74.46,110.42H68.67l.14-2.41c-1.77,1.91-4.12,2.81-7.31,2.81a6.06,6.06,0,0,1-6.37-6.35c0-5.66,4.5-9,12.24-9a25.87,25.87,0,0,1,2.84.18,5.3,5.3,0,0,0,.27-1.51c0-1.54-1.21-2.12-4.47-2.12a25.33,25.33,0,0,0-5.78.65l-1,.25-.63.15,1-5.23a31.5,31.5,0,0,1,8.34-1.23c6,0,9.15,2.36,9.15,6.82a24,24,0,0,1-.56,4.6l-1.46,8.25-.25,1.48L74.65,109l-.12.81-.07.63Zm-5.08-10.36a14.2,14.2,0,0,0-1.56-.09c-3.95,0-5.95,1.19-5.95,3.53a2.29,2.29,0,0,0,2.5,2.38c2.84,0,4.89-2.38,5-5.82Z"/><path class="cls-1" d="M97.31,109.92a26.57,26.57,0,0,1-7.14.94c-7.78,0-11.84-3.58-11.84-10.41,0-8,5.16-13.86,12.17-13.86,5.74,0,9.4,3.29,9.4,8.45a22,22,0,0,1-.86,5.74H85.19a4.65,4.65,0,0,0-.06.73c0,2.7,2.06,4.07,6.11,4.07a18.4,18.4,0,0,0,7.23-1.47l-1.16,5.81ZM93.6,96.08c0-.48.06-.88.06-1.18,0-1.89-1.22-3-3.3-3s-3.8,1.49-4.44,4.17Z"/><path class="cls-1" d="M171.66,99.88c-1,7.73-6.4,11.16-13.53,11.16-7.88,0-11.06-4.81-11.06-10.71,0-8.24,5.39-13.83,13.71-13.83,7.23,0,11.07,4.59,11.07,10.5a14.28,14.28,0,0,1-.19,2.88Zm-7.17-3c0-2.43-1-4.72-3.84-4.72-3.55,0-5.75,4.23-5.75,8,0,3.15,1.51,5.27,4,5.22,1.51,0,4.73-2.07,5.36-5.69a15.87,15.87,0,0,0,.23-2.78Z"/></g></g></svg>